HIERARCHY
ROOT Hips
{
	OFFSET 0.000000 97.420761 0.000000
	CHANNELS 6 Xposition Yposition Zposition Xrotation Yrotation Zrotation
	JOINT RightUpLeg
	{
		OFFSET -8.571318 0.002251 -0.000250
		CHANNELS 6 Xposition Yposition Zposition Xrotation Yrotation Zrotation
		JOINT RightLeg
		{
			OFFSET 0.000000 -44.326080 -0.000105
			CHANNELS 6 Xposition Yposition Zposition Xrotation Yrotation Zrotation
			JOINT RightFoot
			{
				OFFSET 0.000000 -43.324329 -0.000176
				CHANNELS 6 Xposition Yposition Zposition Xrotation Yrotation Zrotation
				JOINT RightToeBase
				{
					OFFSET 0.000000 -7.938133 18.050686
					CHANNELS 6 Xposition Yposition Zposition Xrotation Yrotation Zrotation
					End Site
					{
						OFFSET 0.000000 0.000000 19.719055
					}
				}
			}
		}
	}
	JOINT LeftUpLeg
	{
		OFFSET 8.571318 -0.000084 0.000009
		CHANNELS 6 Xposition Yposition Zposition Xrotation Yrotation Zrotation
		JOINT LeftLeg
		{
			OFFSET 0.000000 -44.326080 -0.000105
			CHANNELS 6 Xposition Yposition Zposition Xrotation Yrotation Zrotation
			JOINT LeftFoot
			{
				OFFSET 0.000000 -43.324329 -0.000176
				CHANNELS 6 Xposition Yposition Zposition Xrotation Yrotation Zrotation
				JOINT LeftToeBase
				{
					OFFSET 0.000000 -7.938133 18.050686
					CHANNELS 6 Xposition Yposition Zposition Xrotation Yrotation Zrotation
					End Site
					{
						OFFSET 0.000000 0.000000 19.719055
					}
				}
			}
		}
	}
	JOINT Spine
	{
		OFFSET 0.000000 10.422829 -1.158092
		CHANNELS 6 Xposition Yposition Zposition Xrotation Yrotation Zrotation
		JOINT Spine1
		{
			OFFSET 0.000000 11.587624 0.000000
			CHANNELS 3 Xrotation Yrotation Zrotation
			JOINT Spine2
			{
				OFFSET 0.000000 10.579559 -0.000443
				CHANNELS 6 Xposition Yposition Zposition Xrotation Yrotation Zrotation
				JOINT Spine3
				{
					OFFSET 0.000000 10.567749 -0.000444
					CHANNELS 6 Xposition Yposition Zposition Xrotation Yrotation Zrotation
					JOINT LeftShoulder
					{
						OFFSET 3.218383 8.290512 0.000000
						CHANNELS 6 Xposition Yposition Zposition Xrotation Yrotation Zrotation
						JOINT LeftArm
						{
							OFFSET 15.038529 0.000000 0.000000
							CHANNELS 3 Xrotation Yrotation Zrotation
							JOINT LeftForeArm
							{
								OFFSET 32.129166 0.000000 0.000000
								CHANNELS 3 Xrotation Yrotation Zrotation
								JOINT LeftHand
								{
									OFFSET 26.275406 0.000000 0.000000
									CHANNELS 3 Xrotation Yrotation Zrotation
									End Site
									{
										OFFSET 26.275406 0.000000 0.000000
									}
								}
							}
						}
					}
					JOINT RightShoulder
					{
						OFFSET -3.218383 8.290512 0.000000
						CHANNELS 6 Xposition Yposition Zposition Xrotation Yrotation Zrotation
						JOINT RightArm
						{
							OFFSET -15.038529 0.000000 0.000000
							CHANNELS 3 Xrotation Yrotation Zrotation
							JOINT RightForeArm
							{
								OFFSET -32.129166 0.000000 0.000000
								CHANNELS 3 Xrotation Yrotation Zrotation
								JOINT RightHand
								{
									OFFSET -26.275406 0.000000 0.000000
									CHANNELS 3 Xrotation Yrotation Zrotation
									End Site
									{
										OFFSET -26.275406 0.000000 0.000000
									}
								}
							}
						}
					}
					JOINT Neck
					{
						OFFSET 0.000000 14.789474 0.000000
						CHANNELS 6 Xposition Yposition Zposition Xrotation Yrotation Zrotation
						JOINT Head
						{
							OFFSET 0.000000 9.838806 0.000953
							CHANNELS 6 Xposition Yposition Zposition Xrotation Yrotation Zrotation
							End Site
							{
								OFFSET 0.000000 9.838806 0.000000
							}
						}
					}
				}
			}
		}
	}
}
MOTION
Frames: 5
Frame Time: 0.016667
0.000000 97.420761 0.000000 -0.000000 0.000000 -0.000000 -8.571318 0.002251 -0.000250 -0.000000 0.000000 -0.000000 0.000000 -44.326080 -0.000105 -0.000000 0.000000 -0.000000 0.000000 -43.324329 -0.000176 -0.000000 0.000000 -0.000000 0.000000 -7.938133 18.050686 -0.000000 0.000000 -0.000000 8.571318 -0.000084 0.000009 -0.000000 0.000000 -0.000000 0.000000 -44.326080 -0.000105 -0.000000 0.000000 -0.000000 0.000000 -43.324329 -0.000176 -0.000000 0.000000 -0.000000 0.000000 -7.938133 18.050686 -0.000000 0.000000 -0.000000 0.000000 10.422829 -1.158092 -0.000000 0.000000 -0.000000 -0.000000 0.000000 -0.000000 0.000000 10.579559 -0.000443 -0.000000 0.000000 -0.000000 0.000000 10.567749 -0.000444 -0.000000 0.000000 -0.000000 3.218383 8.290512 0.000000 -0.000000 0.000000 -0.000000 -0.000000 0.000000 -0.000000 -0.000000 0.000000 -0.000000 -0.000000 0.000000 -0.000000 -3.218383 8.290512 0.000000 -0.000000 0.000000 -0.000000 -0.000000 0.000000 -0.000000 -0.000000 0.000000 -0.000000 -0.000000 0.000000 -0.000000 0.000000 14.789474 0.000000 -0.000000 0.000000 -0.000000 0.000000 9.838806 0.000953 -0.000000 0.000000 -0.000000 
-20.168217 97.434036 81.213486 3.106201 42.698624 0.133364 -8.571317 0.002241 -0.000246 -0.843529 -4.582989 -2.450744 0.000003 -44.326069 -0.000097 5.011497 -1.548260 0.410487 -0.000003 -43.324329 -0.000173 -6.641078 -0.734990 -0.408348 0.000004 -7.938131 18.050686 -0.000000 -0.000002 0.000000 8.571318 -0.000093 0.000006 1.404121 12.330796 -1.144337 -0.000004 -44.326092 -0.000109 1.906667 -0.929761 0.177157 -0.000005 -43.324326 -0.000175 -3.306828 4.741557 1.002744 0.000010 -7.938134 18.050684 0.000000 -0.000003 -0.000000 0.000001 10.422824 -1.158093 2.301855 3.787315 -0.488269 -4.696138 1.697046 -0.027593 -0.000001 10.579574 -0.000440 1.010152 1.697052 -0.025727 -0.000001 10.567772 -0.000435 6.481201 1.264756 -0.144490 3.218386 8.290512 0.000008 2.009824 -12.607202 -7.308546 -15.432319 -2.780667 -78.538269 -0.553006 -2.621861 -2.257473 -2.093742 -0.017311 -2.449753 -3.218381 8.290502 0.000007 -1.290857 -3.183115 10.903394 -16.622232 8.246437 72.871568 0.840244 -0.024315 -0.364095 -3.003212 -1.149473 5.077412 0.000006 14.789469 0.000004 13.691638 -8.481202 2.655759 0.000003 9.838785 0.000945 -10.018005 -16.423671 1.593809 
-20.541189 97.424126 82.856834 3.153344 43.555751 0.089856 -8.571311 0.002251 -0.000247 -0.765779 -4.607992 -2.585531 -0.000000 -44.326092 -0.000099 5.034793 -1.759621 0.608324 -0.000003 -43.324337 -0.000175 -6.757718 -0.653271 -0.411448 0.000005 -7.938130 18.050686 -0.000000 -0.000001 -0.000000 8.571321 -0.000083 0.000012 1.405334 12.525377 -1.233935 0.000006 -44.326088 -0.000103 2.074039 -0.935937 0.390058 0.000013 -43.324337 -0.000173 -3.522713 4.872549 0.919376 0.000002 -7.938133 18.050688 0.000000 0.000002 -0.000000 0.000008 10.422834 -1.158089 2.351326 3.823869 -0.487693 -4.788508 1.713180 -0.023400 -0.000008 10.579556 -0.000442 1.031921 1.713181 -0.023224 -0.000001 10.567728 -0.000437 6.611957 1.276803 -0.145023 3.218379 8.290519 -0.000000 2.034733 -12.763235 -7.388929 -15.696335 -2.643430 -80.092683 -0.546959 -2.697136 -2.319175 -2.130483 -0.030744 -2.458531 -3.218384 8.290526 -0.000001 -1.298803 -3.153635 11.103776 -17.054357 8.175631 74.338789 0.864882 -0.036457 -0.364649 -3.060657 -1.177365 5.141151 -0.000013 14.789488 -0.000000 13.991040 -8.605764 2.740251 0.000000 9.838807 0.000947 -10.178088 -16.688797 1.633093 
-20.508200 97.414299 82.875320 3.121441 43.579305 0.073829 -8.571312 0.002254 -0.000258 -0.669259 -4.547474 -2.660969 -0.000007 -44.326077 -0.000105 4.961578 -1.932935 0.789038 -0.000000 -43.324326 -0.000159 -6.747222 -0.561544 -0.413484 -0.000004 -7.938133 18.050686 -0.000000 -0.000002 0.000000 8.571324 -0.000086 0.000001 1.376969 12.469937 -1.292922 -0.000012 -44.326080 -0.000111 2.206272 -0.921552 0.592537 -0.000011 -43.324333 -0.000174 -3.670323 4.911610 0.817845 0.000002 -7.938133 18.050686 0.000000 -0.000001 -0.000000 0.000007 10.422827 -1.158100 2.353486 3.785394 -0.474952 -4.787342 1.695550 -0.019693 -0.000012 10.579564 -0.000438 1.033089 1.695549 -0.019518 -0.000004 10.567745 -0.000444 6.612814 1.263922 -0.140939 3.218381 8.290493 -0.000004 2.031225 -12.669421 -7.326021 -15.683760 -2.658853 -80.200320 -0.526531 -2.728140 -2.343205 -2.126523 -0.046378 -2.418252 -3.218387 8.290498 -0.000001 -1.292198 -3.060540 11.086132 -17.120288 8.177797 74.431563 0.861445 -0.053524 -0.364774 -3.058152 -1.180598 5.100886 -0.000006 14.789463 0.000001 14.012727 -8.567836 2.750564 0.000012 9.838792 0.000952 -10.132970 -16.623629 1.670183 
-20.476868 97.406914 82.889687 3.094304 43.599464 0.058172 -8.571320 0.002250 -0.000251 -0.590104 -4.508197 -2.705937 -0.000001 -44.326077 -0.000116 4.906173 -2.062955 0.926104 0.000010 -43.324329 -0.000171 -6.748409 -0.492576 -0.427467 -0.000008 -7.938132 18.050694 0.000000 -0.000000 0.000000 8.571314 -0.000085 0.000013 1.354667 12.415016 -1.333754 0.000006 -44.326088 -0.000104 2.322903 -0.904853 0.749192 -0.000007 -43.324337 -0.000179 -3.791169 4.947600 0.741669 -0.000000 -7.938133 18.050692 -0.000000 0.000002 -0.000000 -0.000007 10.422826 -1.158089 2.353356 3.754822 -0.462760 -4.787219 1.681436 -0.015850 0.000004 10.579567 -0.000440 1.033212 1.681443 -0.015676 0.000002 10.567748 -0.000439 6.612895 1.253679 -0.137020 3.218377 8.290510 -0.000003 2.019877 -12.598742 -7.276027 -15.662460 -2.667035 -80.284700 -0.507618 -2.769040 -2.377421 -2.125245 -0.061407 -2.385451 -3.218391 8.290502 0.000002 -1.294810 -2.987439 11.068872 -17.173206 8.185978 74.513908 0.840215 -0.078091 -0.377856 -3.053344 -1.185493 5.062278 -0.000003 14.789464 -0.000007 14.033561 -8.535515 2.758862 0.000003 9.838819 0.000949 -10.090186 -16.567833 1.701156 
